<svg   id="chart"   width="1200"   height="630"   viewBox="0 0 1200 630"   xmlns="http://www.w3.org/2000/svg" >      <path d="M 0,627.6047369673139 C 12.600000000000001,624.7193079637185 37.8,619.6502683232608 63,613.177591949337 C 88.2,606.7049155754133 100.80000000000001,610.088383760156 126,595.2413550976954 C 151.2,580.3943264352348 163.8,556.1935093775327 189,538.9424486370341 C 214.2,521.6913878965355 226.8,521.6429758465562 252,508.9860513952025 C 277.2,496.32912694384873 289.8,486.2664300869119 315,475.6578263802654 C 340.2,465.04922267361894 352.8,449.0877999984423 378,455.94303286197015 C 403.2,462.798265725498 415.8,510.10928689444336 441,509.9339906979049 C 466.2,509.7586945013665 478.8,477.4468644380508 504,455.06655187927805 C 529.2,432.6862393205053 541.8,406.6751418527838 567,398.03242790404124 C 592.2,389.38971395529876 604.8,418.8379470229246 630,411.8529821355655 C 655.2,404.86801724820646 667.8,378.79881940211686 693,363.1076034672459 C 718.2,347.416387532375 730.8,334.56312987255154 756,333.39690246121086 C 781.2,332.2306750498702 793.8,346.57159176486925 819,357.2764664105424 C 844.2,367.98134105621557 856.8,429.64794353119805 882,386.92127568957665 C 907.2,344.19460784795524 919.8,177.43650811175632 945,143.64312720243527 C 970.2,109.84974629311421 982.8,218.27244984132588 1008,217.95437114297135 C 1033.2,217.63629244461683 1045.8,138.62273426510694 1071,142.05273371066266 C 1096.2,145.4827331562184 1108.8,261.1024384570071 1134,235.10436837074994 C 1159.2,209.10629828449274 1184.4,56.67078029765137 1197,12.062383279376718,L 1200 630,L 0 630Z" fill="#fddd001a" />   <path d="M 0,627.6047369673139 C 12.600000000000001,624.7193079637185 37.8,619.6502683232608 63,613.177591949337 C 88.2,606.7049155754133 100.80000000000001,610.088383760156 126,595.2413550976954 C 151.2,580.3943264352348 163.8,556.1935093775327 189,538.9424486370341 C 214.2,521.6913878965355 226.8,521.6429758465562 252,508.9860513952025 C 277.2,496.32912694384873 289.8,486.2664300869119 315,475.6578263802654 C 340.2,465.04922267361894 352.8,449.0877999984423 378,455.94303286197015 C 403.2,462.798265725498 415.8,510.10928689444336 441,509.9339906979049 C 466.2,509.7586945013665 478.8,477.4468644380508 504,455.06655187927805 C 529.2,432.6862393205053 541.8,406.6751418527838 567,398.03242790404124 C 592.2,389.38971395529876 604.8,418.8379470229246 630,411.8529821355655 C 655.2,404.86801724820646 667.8,378.79881940211686 693,363.1076034672459 C 718.2,347.416387532375 730.8,334.56312987255154 756,333.39690246121086 C 781.2,332.2306750498702 793.8,346.57159176486925 819,357.2764664105424 C 844.2,367.98134105621557 856.8,429.64794353119805 882,386.92127568957665 C 907.2,344.19460784795524 919.8,177.43650811175632 945,143.64312720243527 C 970.2,109.84974629311421 982.8,218.27244984132588 1008,217.95437114297135 C 1033.2,217.63629244461683 1045.8,138.62273426510694 1071,142.05273371066266 C 1096.2,145.4827331562184 1108.8,261.1024384570071 1134,235.10436837074994 C 1159.2,209.10629828449274 1184.4,56.67078029765137 1197,12.062383279376718" fill="none" stroke="#fddd00" stroke-width="6px" />   <g>      </g> </svg>