<?xml version="1.0" encoding="utf-8"?>
<!-- Generator: Adobe Illustrator 27.2.0, SVG Export Plug-In . SVG Version: 6.00 Build 0)  -->
<svg version="1.1" id="Logo" xmlns="http://www.w3.org/2000/svg" xmlns:xlink="http://www.w3.org/1999/xlink" x="0px" y="0px"
	 viewBox="0 0 1000 1000" style="enable-background:new 0 0 1000 1000;" xml:space="preserve">
<style type="text/css">
	.st0{fill:#FFFFFF;}
</style>
<path d="M220.42,82.75c0,0,111.68-85.85,271.25-82.66s246.36,62.72,279.44,82.66s81.97,90.36,112.97,116.33s54.81,44.94,73.5,45.01
	c0,0-21.73,33.94-70.35,43.78c0,0,97.41,120.71,89.4,273.67c0,0-4.19-15.29-50.07-19.11c32.87,147.48-11.7,248.22-107.07,328.85
	c-28.66-18.22-51.53-40.32-62.55-76.39c0,0-41.09,107.41-29.22,164.34c-89.07-2.63-170.18-23.56-238.96-62.38
	c0,0,87.48,88.17,117.33,94.4c0,0-138.81,44.79-266.7-68.18c0,0-39.39,28.47-24.37,72.47c0,0-192.31-211.2-193.8-343.62
	c0,0-19.33,25.36-19.97,49.71c0,0-84.2-183.8,30.23-406.66C131.48,294.96,217.87,104.87,220.42,82.75z"/>
<path class="st0" d="M354.63,101.97c0,0-6.83,23.86-1.38,30.45c0,0,44.67-37.32,95.8-40.22c51.14-2.9,100.85,12.4,131.44,39.16
	s59.07,56.67,63.95,99.08s-37.18,80.64-56.3,92.11c-19.12,11.47-76.99,22.6-103.5,24.68c-26.51,2.08-54.16,2.03-55.63,2.06
	c0,0,44.85,34.55,47.18,79.74s-54.07,110.52-54.07,110.52s-118.22-4.19-164.66-68.51c-0.25-0.34-1.02-1.61-1.38-3.25
	c-0.44-1.98-0.45-4.36-0.45-4.45c-0.03-6.68-2.59-64.09-1.66-70.57c0.3-2.13,6.98-14.04,19.98-26.09
	c10.23-9.49,24.34-16.44,36.37-29.9c2.48-2.78,1.07-13.15,3.56-15.94c26.68-29.88,54.21-58.54,59.82-62.78
	c11.33-8.55,27.51-22.62,44.49-29.42c16.98-6.8,25.27-7.44,25.27-7.44s9.69,8.91,18.23,10.83c8.54,1.92,51.72,13.23,77.05-32.98
	c0,0-51.78-29.95-110.73,1.27c0.22,0.32-58.48,50.48-76,69.31c-18.1,19.46-39.73,42.86-43.87,46.52c0,0-57.09-28.15-114.58,7.7
	c0,0,48.71-54.87,54.26-63.66c4.14-6.55,9.49-19.76,8.84-31.56c-0.33-5.92-2.91-17.65-2.91-17.65c-4.99-2.07-39.87-9.81-54.17-4.23
	c-1.02,0.28,13.29,33.48,43.89,38.96c0,0-0.87,5.13-5.97,13.62c-7.01,11.66-33.03,50.03-39.41,49.82
	c-6.37-0.21-13.81-9.13-15.72-13.38c-1.91-4.25-10.62-16.78-10.41-34.41s3.82-32.71,7.22-38.03c1.82-2.84,17.62-30.52,41.21-53.27
	c20.48-19.74,48.28-34.72,59.91-39.67C305.13,119.86,331.44,105.39,354.63,101.97z"/>
<path class="st0" d="M179.63,344.55c0,0-38.56,57.99-43.02,90.82s19.86,100.48,25.81,105.15c2.54,6.02,87.88-50.71,85.4-79.03
	c-1.58-18.06-1.06-60.68-1.23-68.03c-0.01-0.47-0.55-1.71-1.39-2.22C237.64,386.72,200.09,375.04,179.63,344.55z"/>
<path class="st0" d="M412.46,553.69c0,0-75.99-9.98-127.32-42.49c0,0-26.03-10.2-52.06,0c-26.04,10.2-48.34,34.68-63,45.25
	c0,0,38.24,88.31,155.5,95.46C325.57,651.91,409.26,578.54,412.46,553.69z"/>
</svg>
